<svg width="16" height="15" viewBox="0 0 16 15" fill="none" xmlns="http://www.w3.org/2000/svg">
<path fill-rule="evenodd" clip-rule="evenodd" d="M7.28961 9.70326L2.18233 11.1841L3.45355 6.02065L5.03936 7.54303L7.5974 4.87841C7.68424 4.78795 7.80422 4.73681 7.92961 4.73681C8.05501 4.73681 8.17498 4.78795 8.26183 4.87841L10.1401 6.83495L12.9026 3.95737C13.0787 3.77389 13.3702 3.76794 13.5537 3.94408C13.7372 4.12022 13.7431 4.41174 13.567 4.59522L10.4723 7.81885C10.3855 7.90931 10.2655 7.96045 10.1401 7.96045C10.0147 7.96045 9.89473 7.90931 9.80789 7.81885L7.92961 5.86231L5.70379 8.18088L7.28961 9.70326Z" fill="#FF3C11"/>
</svg>
