<?xml version="1.0" encoding="UTF-8"?>
<svg xmlns="http://www.w3.org/2000/svg" width="51" height="58" viewBox="0 0 51 58" fill="none">
  <g id="Frame" clip-path="url(#clip0_204_706)">
    <g id="Group">
      <path id="Vector" d="M29.8731 49.0557C41.2876 49.0557 50.5408 40.0743 50.5408 28.9952C50.5408 17.9161 41.2876 8.93469 29.8731 8.93469C18.4586 8.93469 9.20532 17.9161 9.20532 28.9952C9.20532 40.0743 18.4586 49.0557 29.8731 49.0557Z" fill="#7A79B7"></path>
      <path id="Vector_2" d="M44.492 43.1846C36.4203 51.0191 23.3356 51.0191 15.264 43.1846C7.19229 35.3501 7.19229 22.6498 15.264 14.8153L44.492 43.1846Z" fill="#737099"></path>
      <path id="Vector_3" d="M8.75594 49.5012C-2.91181 38.1762 -2.91181 19.8135 8.75594 8.48858C20.4237 -2.83636 39.3423 -2.83636 51.01 8.48858L8.75594 49.5012Z" fill="#34337E"></path>
      <path id="Vector_4" d="M29.873 29.0047L8.7557 49.5015C-2.91206 38.1765 -2.91206 19.8138 8.7557 8.48889L29.873 29.0047Z" fill="#232459"></path>
      <path id="Vector_5" d="M50.9999 49.5014C39.3322 60.8263 20.4136 60.8263 8.74585 49.5014L29.8729 28.9951L50.9999 49.5014Z" fill="#CE2F30"></path>
      <path id="Vector_6" d="M44.4919 43.1845C36.4203 51.019 23.3356 51.019 15.2639 43.1845L29.873 29.0046L44.4919 43.1845Z" fill="#832929"></path>
    </g>
  </g>
  <defs>
    <clipPath id="clip0_204_706">
      <rect width="51" height="58" fill="white"></rect>
    </clipPath>
  </defs>
</svg>
