<svg width="17" height="17" viewBox="0 0 17 17" fill="none" xmlns="http://www.w3.org/2000/svg">
<path fill-rule="evenodd" clip-rule="evenodd" d="M5.95703 1.58203C4.46126 1.58203 3.2487 2.79459 3.2487 4.29036C3.2487 5.78614 4.46126 6.9987 5.95703 6.9987C7.4528 6.9987 8.66537 5.78614 8.66537 4.29036C8.66537 2.79459 7.4528 1.58203 5.95703 1.58203ZM1.9987 4.29036C1.9987 2.10424 3.7709 0.332031 5.95703 0.332031C8.14316 0.332031 9.91537 2.10424 9.91537 4.29036C9.91537 6.47649 8.14316 8.2487 5.95703 8.2487C3.7709 8.2487 1.9987 6.47649 1.9987 4.29036Z" fill="white"/>
<path fill-rule="evenodd" clip-rule="evenodd" d="M4.29036 11.582C3.57207 11.582 2.88319 11.8674 2.37528 12.3753C1.86737 12.8832 1.58203 13.5721 1.58203 14.2904V15.957C1.58203 16.3022 1.30221 16.582 0.957031 16.582C0.611853 16.582 0.332031 16.3022 0.332031 15.957V14.2904C0.332031 13.2405 0.749069 12.2337 1.4914 11.4914C2.23373 10.7491 3.24055 10.332 4.29036 10.332H7.6237C8.67351 10.332 9.68033 10.7491 10.4227 11.4914C11.165 12.2337 11.582 13.2405 11.582 14.2904V15.957C11.582 16.3022 11.3022 16.582 10.957 16.582C10.6119 16.582 10.332 16.3022 10.332 15.957V14.2904C10.332 13.5721 10.0467 12.8832 9.53878 12.3753C9.03087 11.8674 8.34199 11.582 7.6237 11.582H4.29036Z" fill="white"/>
<path fill-rule="evenodd" clip-rule="evenodd" d="M11.1849 0.91034C11.2705 0.575949 11.611 0.374278 11.9454 0.459896C12.7968 0.677902 13.5515 1.17309 14.0904 1.86739C14.6294 2.56169 14.9219 3.41561 14.9219 4.29453C14.9219 5.17345 14.6294 6.02737 14.0904 6.72167C13.5515 7.41597 12.7968 7.91116 11.9454 8.12917C11.611 8.21478 11.2705 8.01311 11.1849 7.67872C11.0993 7.34433 11.3009 7.00385 11.6353 6.91823C12.2179 6.76907 12.7343 6.43025 13.103 5.95521C13.4718 5.48016 13.6719 4.8959 13.6719 4.29453C13.6719 3.69317 13.4718 3.1089 13.103 2.63386C12.7343 2.15881 12.2179 1.82 11.6353 1.67083C11.3009 1.58522 11.0993 1.24473 11.1849 0.91034Z" fill="white"/>
<path fill-rule="evenodd" clip-rule="evenodd" d="M12.8519 10.9258C12.9382 10.5916 13.2791 10.3906 13.6133 10.4769C14.4592 10.6953 15.2091 11.1874 15.7461 11.8765C16.2831 12.5657 16.577 13.4131 16.582 14.2868L16.582 14.2904L16.582 15.957C16.582 16.3022 16.3022 16.582 15.957 16.582C15.6119 16.582 15.332 16.3022 15.332 15.957V14.2923C15.3282 13.6951 15.1272 13.1159 14.7601 12.6449C14.3927 12.1733 13.8796 11.8366 13.3008 11.6872C12.9666 11.6009 12.7656 11.26 12.8519 10.9258Z" fill="white"/>
</svg>
