<?xml version="1.0" encoding="UTF-8"?>
<svg xmlns="http://www.w3.org/2000/svg" width="167" height="47" viewBox="0 0 167 47" fill="none">
  <g id="Frame" clip-path="url(#clip0_204_76)">
    <g id="Group">
      <path id="Vector" d="M62.4374 22.8966H57.9651L50.8033 17.5856V22.8966H47.9995V10.8296H50.8033V15.8562L57.4318 10.8296H61.4622L53.5385 16.5096L62.4374 22.8966Z" fill="#34337E"></path>
      <path id="Vector_2" d="M82.3533 20.0451C82.3533 21.1673 82.14 21.9205 81.7133 22.3125C81.2867 22.7045 80.5095 22.8966 79.3819 22.8966H70.5744C69.4468 22.8966 68.6697 22.7045 68.243 22.3125C67.8164 21.9205 67.603 21.1673 67.603 20.0451V13.6811C67.603 12.5589 67.8164 11.8057 68.243 11.4137C68.6697 11.0217 69.4468 10.8296 70.5744 10.8296H79.3819C80.5095 10.8296 81.2867 11.0217 81.7133 11.4137C82.14 11.8057 82.3533 12.5589 82.3533 13.6811V20.0451ZM79.5724 20.6293V12.9817H70.3916V20.6293H79.5724Z" fill="#34337E"></path>
      <path id="Vector_3" d="M105.066 16.7939C105.066 19.1305 104.182 20.8522 102.422 21.9589C101.416 22.5815 99.778 22.8966 97.5075 22.8966H90.5286V10.8296H98.2237C100.296 10.8296 101.919 11.2984 103.092 12.2361C104.41 13.2661 105.066 14.7802 105.066 16.7939ZM102.193 16.7478C102.193 14.2345 100.883 12.9817 98.2542 12.9817H93.3171V20.6293H96.9133C98.6123 20.6293 99.8466 20.4141 100.624 19.976C101.667 19.3841 102.193 18.3081 102.193 16.7478Z" fill="#34337E"></path>
      <path id="Vector_4" d="M124.837 22.8966H112.479V10.8296H124.715V12.8894H115.26V15.5795H120.776V17.6394H115.26V20.6293H124.837V22.8966Z" fill="#34337E"></path>
      <path id="Vector_5" d="M146.49 22.8966H142.505L137.682 18.3388H135.038V22.8966H132.303V10.8296H142.551C144.341 10.8296 145.24 11.6059 145.24 13.1661V15.9946C145.24 17.1629 144.775 17.8854 143.846 18.1697C143.488 18.2773 142.535 18.3311 140.974 18.3311L146.49 22.8966ZM142.551 15.3182V13.8656C142.551 13.4582 142.436 13.1969 142.2 13.0739C142.033 12.9663 141.728 12.9125 141.294 12.9125H135.038V16.279H141.294C141.728 16.279 142.025 16.2252 142.2 16.1176C142.429 15.9946 142.551 15.7256 142.551 15.3182Z" fill="#34337E"></path>
      <path id="Vector_6" d="M166.193 20.0451C166.193 21.1673 165.979 21.9205 165.545 22.3125C165.111 22.7045 164.334 22.8966 163.206 22.8966H155.808C154.589 22.8966 153.781 22.6814 153.4 22.2433C153.012 21.8052 152.821 20.9674 152.821 19.7146L155.282 19.1997V20.6293H163.739V17.87H156.273C155.145 17.87 154.368 17.6778 153.941 17.2858C153.515 16.8939 153.301 16.1406 153.301 15.0185V13.6811C153.301 12.5589 153.515 11.8057 153.941 11.4137C154.368 11.0217 155.145 10.8296 156.273 10.8296H163.061C164.204 10.8296 164.989 11.0294 165.4 11.4291C165.819 11.8288 166.025 12.5974 166.025 13.7349L163.564 14.319V12.9356H155.732V15.5334H163.198C164.326 15.5334 165.103 15.7256 165.537 16.1176C165.972 16.5096 166.185 17.2628 166.185 18.3849V20.0451H166.193Z" fill="#34337E"></path>
      <path id="Vector_7" d="M60.9365 33.4187C60.9365 34.979 60.0375 35.7553 58.247 35.7553H50.7347V40.4591H47.9995V28.3921H58.247C60.0375 28.3921 60.9365 29.1684 60.9365 30.7286V33.4187ZM58.247 32.7193V31.4358C58.247 31.0284 58.1327 30.7671 57.8965 30.6441C57.7289 30.5365 57.4242 30.4827 56.9899 30.4827H50.7347V33.6878H56.9899C57.4242 33.6878 57.7213 33.634 57.8965 33.5264C58.1327 33.388 58.247 33.119 58.247 32.7193Z" fill="#CE2F30"></path>
      <path id="Vector_8" d="M88.0066 40.4591H75.6562V28.3921H87.8923V30.4519H78.4372V33.142H83.9533V35.2019H78.4372V38.1918H88.0066V40.4591Z" fill="#CE2F30"></path>
      <path id="Vector_9" d="M118.117 34.3489C118.117 36.6854 117.233 38.4071 115.473 39.5139C114.467 40.1364 112.829 40.4516 110.559 40.4516H103.58V28.3845H111.275C113.347 28.3845 114.97 28.8534 116.144 29.7911C117.462 30.821 118.117 32.3428 118.117 34.3489ZM115.244 34.3028C115.244 31.7894 113.934 30.5366 111.305 30.5366H106.368V38.1842H109.965C111.664 38.1842 112.898 37.969 113.675 37.5309C114.719 36.9391 115.244 35.863 115.244 34.3028Z" fill="#CE2F30"></path>
      <path id="Vector_10" d="M136.433 40.4591H133.652V28.3921H136.433V40.4591Z" fill="#CE2F30"></path>
      <path id="Vector_11" d="M167 40.4591H163.869L162.429 37.8151H154.848L153.454 40.4591H150.673L157.438 28.3921H160.128L167 40.4591ZM161.278 35.64L158.703 30.7286L156.036 35.64H161.278Z" fill="#CE2F30"></path>
    </g>
    <g id="Group_2">
      <path id="Vector_12" d="M23.2913 39.7521C32.1909 39.7521 39.4055 32.4741 39.4055 23.4962C39.4055 14.5183 32.1909 7.24023 23.2913 7.24023C14.3918 7.24023 7.17725 14.5183 7.17725 23.4962C7.17725 32.4741 14.3918 39.7521 23.2913 39.7521Z" fill="#7A79B7"></path>
      <path id="Vector_13" d="M34.6892 34.9945C28.3959 41.3431 18.1941 41.3431 11.9009 34.9945C5.60759 28.6458 5.60759 18.3543 11.9009 12.0056L34.6892 34.9945Z" fill="#737099"></path>
      <path id="Vector_14" d="M6.82669 40.1133C-2.27035 30.9362 -2.27035 16.056 6.82669 6.87892C15.9237 -2.29818 30.674 -2.29818 39.7711 6.87892L6.82669 40.1133Z" fill="#34337E"></path>
      <path id="Vector_15" d="M23.2913 23.5038L6.82669 40.1132C-2.27035 30.9361 -2.27035 16.056 6.82669 6.87891L23.2913 23.5038Z" fill="#232459"></path>
      <path id="Vector_16" d="M39.7635 40.1133C30.6664 49.2904 15.9161 49.2904 6.81909 40.1133L23.2913 23.4961L39.7635 40.1133Z" fill="#CE2F30"></path>
      <path id="Vector_17" d="M34.6892 34.9943C28.3959 41.3429 18.1941 41.3429 11.9009 34.9943L23.2912 23.5037L34.6892 34.9943Z" fill="#832929"></path>
    </g>
  </g>
  <defs>
    <clipPath id="clip0_204_76">
      <rect width="167" height="47" fill="white"></rect>
    </clipPath>
  </defs>
</svg>
